<svg id="Layer_1" data-name="Layer 1" xmlns="http://www.w3.org/2000/svg" viewBox="0 0 1611.65 195.77"><defs><style>.cls-1{fill:#fff;}.cls-2{fill:#fa0000;}</style></defs><title>arkade-logo-transparent</title><path class="cls-1" d="M960.43,327.77a1.82,1.82,0,0,0,.43,1.49c8.35,14.42,29.43,48.59,31.43,50.94.36-.15.29-.48.29-.76,0-1,0-2.06,0-3.09q0-88.85,0-177.69c0-4.73-.69-4,4.11-4,12.38,0,24.77,0,37.15,0h2.47c1,0,1.45.15,1.42,1.48,0,.82,0,1.65,0,2.47q0,91.17,0,182.33c0,4.39.65,3.81-3.69,3.81q-44.73,0-89.46,0c-3.87,0-2.81.51-4.79-2.7Q924,356.36,908.2,330.66c-.38-.62-.79-1.21-1.13-1.85a2,2,0,0,0-2-1.16c-6.91,0-13.83,0-20.74,0-1,0-1.22.26-1.25,1.31,0,.82,0,1.65,0,2.47q0,24.77,0,49.53c0,.93,0,1.86,0,2.79a.85.85,0,0,1-1,.93l-1.24,0H839.71c-1.33,0-1.35-.06-1.39-1.44,0-.72,0-1.45,0-2.17v-126c0-.51,0-1,0-1.54,0-2,.09-2.05,2.06-2.05h40.56l1.23,0c.64,0,.9.4.92,1,0,.83,0,1.65,0,2.48v21.36c0,.72,0,1.44,0,2.17,0,1.29.2,1.47,1.36,1.52.41,0,.83,0,1.24,0h48.91c2.89,0,2.73.06,2.73-2.65v-32.5c0-.62,0-1.24-.05-1.86a.77.77,0,0,0-.76-.79c-.93-.05-1.86-.07-2.78-.07q-45.66,0-91.32,0c-1.3,0-2.91.59-3.83-.41s-.28-2.38-.28-3.6c0-13.62,0-27.24,0-40.86,0-2.92-.08-2.69,2.67-2.69q58.82,0,117.63,0a16.11,16.11,0,0,1,9.31,2.81,38.63,38.63,0,0,1,11.92,12.8,17.4,17.4,0,0,1,2.31,8.86q-.07,42.25,0,84.51A22.73,22.73,0,0,1,977,318.15a29.14,29.14,0,0,1-5,5,19.75,19.75,0,0,1-9.19,4.18C962,327.49,961.19,327.64,960.43,327.77Z" transform="translate(-14.88 -189.96)"/><path class="cls-1" d="M1146.91,375.23a7.69,7.69,0,0,0,1.85-2.54q48.27-78.7,96.53-157.4c1.35-2.2,2.71-4.4,4.22-6.48,3.85-5.26,8.6-9.53,14.79-11.79,12.06-4.39,23.36-3,33.47,5.17a36.84,36.84,0,0,1,13.35,21,35.27,35.27,0,0,1,.93,7.66q0,33,0,65.93c0,.52,0,1,0,1.55a.77.77,0,0,1-.75.8c-.62,0-1.24.05-1.86.05h-39.93l-1.54,0a.9.9,0,0,1-1-.92c0-.82,0-1.65,0-2.47v-27.1c-.69-.37-.89.1-1.07.4q-12,19.16-23.86,38.34a.8.8,0,0,0-.08,1,9.65,9.65,0,0,0,2.5.1h63.77c.72,0,1.44,0,2.16,0,1.48,0,1.78.18,1.74,1.78,0,.62,0,1.24,0,1.86v69c0,.83,0,1.65,0,2.48a.88.88,0,0,1-.9,1c-.62,0-1.24,0-1.85,0h-39.63c-.61,0-1.23,0-1.85,0s-.89-.4-.9-1c0-.82,0-1.65,0-2.47q0-11,0-22c0-.72,0-1.44,0-2.17s-.39-.89-1-.91l-1.24,0c-16.71,0-33.43,0-50.14,0a3.25,3.25,0,0,0-3.18,1.82c-4.8,7.94-9.67,15.84-14.52,23.75a6.7,6.7,0,0,0-.64,1.05c-.68,1.7-1.94,2-3.67,2q-34.2-.08-68.41,0h-21.67l-2.16,0A1.31,1.31,0,0,1,1099,384c-.36-.63-.77-1.23-1.14-1.84q-24.84-40.28-49.71-80.54a9.38,9.38,0,0,1-1.47-5.21q.09-20.74,0-41.48a9.37,9.37,0,0,1,1.48-5.22q16.2-26.34,32.3-52.75c1.73-2.82,1.06-2.33,4.07-2.34q24,0,48,0c.62,0,1.24,0,1.85,0a.57.57,0,0,1,.45.87c-.46.8-1,1.59-1.43,2.38q-22.92,37.29-45.83,74.57c-2.17,3.54-2.19,2.27,0,5.94q28.8,47.1,57.65,94.17C1145.77,373.47,1146.33,374.33,1146.91,375.23Z" transform="translate(-14.88 -189.96)"/><path class="cls-1" d="M1318.65,317.83V255.3c0-.83,0-1.65,0-2.48,0-1.16.15-1.29,1.2-1.33.62,0,1.24,0,1.86,0h38.69c.72,0,1.44,0,2.16,0s.89.41.89,1c0,.93,0,1.86,0,2.78v78c0,.93,0,1.85,0,2.78s.44,1.07,1.16,1.08h62.83c.72,0,1.45,0,2.17,0s1-.52.55-1.25-.76-1.23-1.14-1.84q-27.49-44.64-55-89.25c-1.88-3.06-.91-2.6-4.53-2.6q-23.68,0-47.36,0l-2.48,0a.9.9,0,0,1-1-.93c0-.62,0-1.24,0-1.85V197c0-2.34,0-2.36,2.39-2.36,19.29,0,38.59,0,57.88,0,11.07,0,19.92,4.59,26.57,13.41,1.42,1.89,2.65,3.94,4,5.91q11.34,17,22.68,33.95c12.62,18.86,24.75,38,35.62,58a202.59,202.59,0,0,1,11.2,23.41,92.47,92.47,0,0,1,3.59,11.81,20.88,20.88,0,0,1,.85,6,3,3,0,0,1-.11,1.22c-1.12,2.06-1,4.4-1.5,6.58-3,12.53-13.33,24.05-25.25,28.06a32.11,32.11,0,0,1-9.7,1.74c-1.14,0-2.27,0-3.41,0h-121c-1.12,0-2.48.46-3.3-.25-1-.84-.43-2.31-.43-3.5Q1318.63,349.4,1318.65,317.83Z" transform="translate(-14.88 -189.96)"/><path class="cls-1" d="M831.84,262.78v32.5c0,.62,0,1.24,0,1.86,0,2-.05,2-2.09,2H788.28c-1.29,0-1.47-.2-1.52-1.36,0-.72,0-1.44,0-2.17V271.51c0-.62,0-1.24,0-1.85,0-.38.23-.92-.3-1.09-.69-.22-.71.54-1,.87a3.06,3.06,0,0,0-.33.52l-22.56,36.23a12.71,12.71,0,0,0-.9,1.61.46.46,0,0,0,.35.68c.92.07,1.85.08,2.78.08q31.57,0,63.14,0c4.48,0,3.94-.67,3.94,3.9q0,34.2,0,68.4c0,.93,0,1.85,0,2.78s-.42,1.09-1.16,1.07c-.51,0-1,0-1.55,0H789.51c-.52,0-1,0-1.55,0-1,0-1.16-.18-1.2-1.33,0-.72,0-1.44,0-2.17V359.56c0-.83,0-1.65,0-2.48,0-.62-.43-.89-1-.92s-1,0-1.55,0H734.64l-1.55,0a1.31,1.31,0,0,0-1.25.72c-.35.63-.76,1.23-1.14,1.84-5,8.08-10,16.15-14.85,24.27a3.27,3.27,0,0,1-3.2,1.77c-16.3-.05-32.6,0-48.9,0-.41,0-.82,0-1.23,0-.67,0-.94-.45-.63-1,.5-.9,1-1.78,1.57-2.66l30.4-49.56L766,213.92a54.75,54.75,0,0,1,5.74-8,31.7,31.7,0,0,1,17.19-10.35c10.25-2.2,19.71-.41,28,6.11,7.56,5.94,12.58,13.54,14.35,23.12a43.2,43.2,0,0,1,.58,7.7Z" transform="translate(-14.88 -189.96)"/><path class="cls-1" d="M324.84,289.82q0-45.66,0-91.32c0-4-.52-3.48,3.39-3.48q53.55,0,107.1,0a10.08,10.08,0,0,0,1.23,0c1.54-.22,2.39.52,3.19,1.79q13.77,21.85,27.64,43.64c.22.35.44.7.63,1.06a.58.58,0,0,1-.44.89q-1.54.06-3.09.06-45.35,0-90.69,0c-4.26,0-3.87-.63-3.87,3.7q0,43.8,0,87.6c0,4.48-.41,3.79,3.76,3.79q45.65,0,91.31,0a6.93,6.93,0,0,1,3,.23c.21,1.29-.8,2-1.37,2.94q-13.2,20.94-26.48,41.81c-1.92,3-1.21,2.55-4.62,2.55H328.13c-.62,0-1.24,0-1.86,0-1.15,0-1.38-.28-1.42-1.49,0-.83,0-1.65,0-2.48Z" transform="translate(-14.88 -189.96)"/><path class="cls-1" d="M1483.35,384.48a8.12,8.12,0,0,1-.21-3.06c0-8.77,0-17.54,0-26.3a41.3,41.3,0,0,0-.43-6.47,17.16,17.16,0,0,1,0-5.54,36.34,36.34,0,0,0,.42-6.15q0-51.07,0-102.14V198c0-3.7-.21-3.35,3.31-3.35h107.7c3,0,2.53-.38,4.18,2.22q13.48,21.3,27,42.58c.39.6.77,1.21,1.13,1.84a.57.57,0,0,1-.4.89c-.93,0-1.86,0-2.79,0H1532c-4.21,0-3.67-.47-3.67,3.54q0,44,0,87.89c0,3.88-.51,3.53,3.39,3.53h91c.83,0,1.66,0,2.48,0,.46,0,1.09-.26,1.34.39s-.3.93-.52,1.37c-.14.28-.34.52-.5.78l-27.15,42.84c-.28.44-.56.87-.83,1.31a1.59,1.59,0,0,1-1.52.85c-.72,0-1.45,0-2.17,0H1486.71A8.29,8.29,0,0,1,1483.35,384.48Z" transform="translate(-14.88 -189.96)"/><path class="cls-1" d="M174.53,199.06a7.13,7.13,0,0,0-2.19,2.7q-12.1,19.05-24.19,38.13c-1.87,3-1.16,2.54-4.61,2.55q-13.31,0-26.61,0c-.83,0-1.66,0-2.48-.06a.75.75,0,0,1-.74-.8c0-.62,0-1.24,0-1.85v-42.1c0-.52,0-1,0-1.55,0-.8.44-1.07,1.17-1.07h2.47q49.38,0,98.74,0c4.18,0,3.63-.39,3.63,3.61q0,91.47,0,182.93c0,3.86.46,3.55-3.4,3.55H177.6c-3.23,0-3.07.3-3.07-2.94q0-17.18,0-34.36V199.06Z" transform="translate(-14.88 -189.96)"/><path class="cls-1" d="M318.34,290.08q0,45.8,0,91.6c0,3.86.43,3.42-3.49,3.43H277.09c-.72,0-1.44,0-2.16,0-1.06,0-1.31-.26-1.35-1.22s0-1.65,0-2.48q0-32,0-64c0-4.09.46-3.69-3.58-3.69q-19.34,0-38.67,0c-2.95,0-2.75,0-2.75-2.64q0-21,0-42.08c0-.62,0-1.24,0-1.86a.8.8,0,0,1,.78-.79c.92-.05,1.85-.06,2.77-.06h38.37c3.26,0,3,.17,3-3V198.86c0-.92,0-1.85,0-2.78S274,195,274.72,195h1.86q19.34,0,38.68,0l2.17,0a.86.86,0,0,1,.9,1c0,.83,0,1.65,0,2.48v91.59Z" transform="translate(-14.88 -189.96)"/><path class="cls-1" d="M104.67,289.93v91.32c0,.93,0,1.85,0,2.78,0,.77-.47,1.08-1.19,1.07H63.21c-3.58,0-3.38.39-3.38-3.27q0-27.7,0-55.41V246c0-3.9.28-3.5-3.48-3.5H17.67c-3.08,0-2.78.14-2.78-2.89V197.77c0-.62,0-1.24,0-1.86a.75.75,0,0,1,.72-.82c.61-.05,1.23-.07,1.85-.07H102c2.9,0,2.67-.13,2.67,2.67Z" transform="translate(-14.88 -189.96)"/><path class="cls-1" d="M656.64,383.75c-.54-.61-1-1.27-1.62-1.84q-42.36-42.36-84.72-84.69c-.72-.72-1.47-1.42-2.36-2.27-2.51,2.25-4.79,4.62-7.15,6.9s-4.87,4.76-7.31,7.15l-7.07,6.92-7.08,6.93L532,330l-7.08,6.93-7.07,6.93-7.08,6.93-7.3,7.14-7.09,6.93-7.08,6.92c-2.43,2.39-4.83,4.81-7.3,7.15s-4.51,4.74-7.27,6.82a7.12,7.12,0,0,1,.45-2.93q21.72-78.66,43.46-157.32c3-11,6-22.06,9.12-33.07.71-2.54.09-2.69,3.24-2.28,7.87,1,15.75,2,23.63,3,7.27.91,14.53,1.79,21.8,2.71s14.52,1.86,21.78,2.79l21.49,2.71,22.71,2.89,21.17,2.68c1.31.17,1.43.27,1.43,1.49,0,6.81-.09,13.62-.11,20.43a1.65,1.65,0,0,1-1.32,1.78c-6.33,2.18-12.64,4.42-19,6.62l-25.7,8.9c-.58.2-1.16.42-1.75.61a1.89,1.89,0,0,0-1.45,2.06c0,4-.07,8.05-.11,12.07,0,1.86,0,3.71,0,5.57a1.59,1.59,0,0,0,1,1.73c4.09,1.68,8.19,3.37,12.29,5a2.35,2.35,0,0,0,.72,0c.11-.45.19-1,.34-1.44a3.11,3.11,0,0,0-.42-3.17,2.46,2.46,0,0,1,.16-3.15,2.93,2.93,0,0,1,3-1.11,2.87,2.87,0,0,1,2.28,1.86,2.67,2.67,0,0,1-.57,2.87,1.23,1.23,0,0,1-.46.39c-1.25.55-1.38,1.69-1.54,2.81-.07.51-.11,1-.14,1.54A1.13,1.13,0,0,0,633,275c2.19.9,4.4,1.78,6.57,2.73.77.34,1.34.39,1.83-.39.09-.15.34-.33.47-.3a9.9,9.9,0,0,1,3.67,1.41.31.31,0,0,1,.1.28c-.69,1.74.81,1.84,1.75,2.25,2.45,1.06,4.94,2,7.54,3.09.24,4.26.47,8.58.73,12.9a1.29,1.29,0,0,1-.92,1.4l-10.22,4.4c-2.11.91-2.1.71-1.66,3.23.64,3.66,1.38,7.29,2.06,10.94q3.24,17.49,6.47,35,2.63,14.13,5.24,28.28A24.91,24.91,0,0,1,657,383c0,.23-.27.5-.42.75Zm-6.51-8.94.08,0-.12,0-.16-.2ZM487.74,370.9c1.23-1.1,2.5-2.14,3.68-3.29l73.85-72.29c3.1-3,2.25-3,5.34.09q36.67,36.63,73.31,73.28c1.46,1.46,2.92,2.92,4.41,4.35.23.22.52.69,1,.26.07-.7-.43-1.12-.75-1.62q-4.84-7.55-9.72-15.08-34-52.77-68.09-105.53c-2.29-3.55-2-3.71-4.41-.09q-38.8,58.34-77.62,116.67a8.11,8.11,0,0,0-1.54,2.65,12.08,12.08,0,0,0-1.14,1.36c-.29.45-.88.83-.57,1.64A8.09,8.09,0,0,0,487.74,370.9ZM612,277.32c0-.47-.1-1-.1-1.49q0-14.38,0-28.79c0-.41,0-.82,0-1.23a1.34,1.34,0,0,1,1-1.4c.67-.27,1.35-.51,2-.76,14-5,27.93-10,41.86-15.12,4.79-1.76,3.76-.38,4-5.5.06-1.75,0-3.5,0-5.26,0-.56-.2-1-.88-1l-.93,0q-51.08-.49-102.14-.95c-2,0-4.1-.4-6.12.2-.81,1.78-1.65,3.54-2.42,5.34q-27.76,64.95-55.52,129.9a7.64,7.64,0,0,0-1,3.18,11.55,11.55,0,0,0,2.36-3.07c3.7-5.72,7.28-11.5,11-17.17q15-22.56,30-45.05,15.71-23.55,31.44-47.08c.62-.92,1-2.05,2.1-2.59a1.45,1.45,0,0,1,.25.2l79.4,122.17c.16.26.35.5.54.75a.55.55,0,0,0,.23.17,1,1,0,0,0,.31,0,3.16,3.16,0,0,0,0-2.06q-5.34-28.74-10.7-57.46c0-.31-.12-.61-.17-.91a1,1,0,0,1,.51-1c.64-.34,1.31-.62,2-.91,3.2-1.41,6.4-2.85,9.63-4.21a1.64,1.64,0,0,0,1.23-1.84c-.19-2.27-.33-4.53-.48-6.8a1.16,1.16,0,0,0-.88-1.12c-.49-.15-1-.24-1.5-.36l-34.33-8A8.38,8.38,0,0,1,612,277.32Z" transform="translate(-14.88 -189.96)"/><path class="cls-1" d="M1599.69,265.84a2.46,2.46,0,0,1-.65,2q-13.89,21.93-27.76,43.88a3.3,3.3,0,0,1-3.21,1.76c-9.48-.06-19,0-28.45,0l-1.24,0a.89.89,0,0,1-1-.89c0-.61,0-1.23,0-1.85V268.6c0-3-.11-2.76,2.59-2.76h59.77Z" transform="translate(-14.88 -189.96)"/><path class="cls-1" d="M441.62,266.6l-1.26,2-27.13,42.83c-.16.26-.35.5-.49.78a2.3,2.3,0,0,1-2.44,1.45c-1.23-.08-2.48,0-3.71,0H381.84l-1.86,0c-.78,0-1.07-.44-1.05-1.18s0-1.24,0-1.86V269.46c0-.72,0-1.44,0-2.16s.45-1.07,1.16-1.07h58.47A6,6,0,0,1,441.62,266.6Z" transform="translate(-14.88 -189.96)"/><path class="cls-1" d="M526.37,357.9c.79-.65,1.62-1.26,2.36-2,3.74-3.54,7.49-7.08,11.18-10.67A4.24,4.24,0,0,1,543.2,344q24.27.27,48.54.45a3.51,3.51,0,0,1,2.74,1.05c4.19,4.26,8.44,8.47,12.65,12.71a3.36,3.36,0,0,1,.44.67c-.08.17-.1.29-.17.34a.45.45,0,0,1-.3.07L528,358.65c-.4,0-.79,0-1.18-.08Zm41.06-12.22v-.08c-7.83,0-15.67,0-23.51,0a4.65,4.65,0,0,0-3.58,1.38c-2.86,2.83-5.79,5.58-8.69,8.37-.29.29-.57.59-.84.91s0,.92.34.94c.82.06,1.64.1,2.47.1l20.72.14,42.38.32c2.06,0,4.12.1,6.18.13.3,0,.69-.05.72-.42a1.17,1.17,0,0,0-.28-.8c-3-3-6-6-8.91-9a4.87,4.87,0,0,0-3.8-1.62C582.9,346,575.17,345.8,567.43,345.68Z" transform="translate(-14.88 -189.96)"/><path class="cls-1" d="M567.48,317.86l14.91,15.27a4.24,4.24,0,0,1-1.08.38q-13.75-.09-27.51-.22c-.1,0-.21,0-.31,0s-.42-.08-.43-.34a.94.94,0,0,1,.11-.54c.4-.47.84-.9,1.28-1.34l11.86-12.18C566.6,318.58,566.93,318.34,567.48,317.86ZM578.59,332a5,5,0,0,0-.38-1q-5-5.07-9.91-10.11c-.83-.84-1.07-.83-2,.14-3,3.07-6,6.18-9,9.28a2,2,0,0,0-.4.47c-.09.17-.23.47-.16.55a1.25,1.25,0,0,0,.69.48c.71.07,1.44.06,2.15.06l16,.1Z" transform="translate(-14.88 -189.96)"/><path class="cls-1" d="M656.59,383.72l.29-.13h-.09l-.15.15Z" transform="translate(-14.88 -189.96)"/><path class="cls-2" d="M487.18,370.3a8.11,8.11,0,0,1,1.54-2.65Q527.51,309.3,566.34,251c2.41-3.62,2.12-3.46,4.41.09q34.05,52.76,68.09,105.53,4.88,7.53,9.72,15.08c.32.5.82.92.75,1.62-.46.43-.75,0-1-.26-1.49-1.43-3-2.89-4.41-4.35Q607.28,332,570.61,295.41c-3.09-3.08-2.24-3.12-5.34-.09l-73.85,72.29c-1.18,1.15-2.45,2.19-3.68,3.29Z" transform="translate(-14.88 -189.96)"/><path class="cls-2" d="M487.74,370.9a8.09,8.09,0,0,1-2.27,2.4c-.31-.81.28-1.19.57-1.64a12.08,12.08,0,0,1,1.14-1.36Z" transform="translate(-14.88 -189.96)"/><path class="cls-2" d="M650.13,374.81l-.2-.22.16.2Z" transform="translate(-14.88 -189.96)"/><polygon class="cls-2" points="635.21 184.83 635.33 184.87 635.25 184.84 635.21 184.83"/><path class="cls-2" d="M567.43,345.68c7.74.12,15.47.27,23.2.32a4.87,4.87,0,0,1,3.8,1.62c2.92,3.05,5.94,6,8.91,9a1.17,1.17,0,0,1,.28.8c0,.37-.42.43-.72.42-2.06,0-4.12-.11-6.18-.13l-42.38-.32-20.72-.14c-.83,0-1.65,0-2.47-.1-.38,0-.59-.64-.34-.94s.55-.62.84-.91c2.9-2.79,5.83-5.54,8.69-8.37a4.65,4.65,0,0,1,3.58-1.38c7.84.05,15.68,0,23.51,0Z" transform="translate(-14.88 -189.96)"/><path class="cls-2" d="M578.59,332h-3l-16-.1c-.71,0-1.44,0-2.15-.06a1.25,1.25,0,0,1-.69-.48c-.07-.08.07-.38.16-.55a2,2,0,0,1,.4-.47c3-3.1,6-6.21,9-9.28.94-1,1.18-1,2-.14q5,5,9.91,10.11A5,5,0,0,1,578.59,332Z" transform="translate(-14.88 -189.96)"/></svg>